<svg width="30.000000" height="30.000000" viewBox="0 0 30 30" fill="none" xmlns="http://www.w3.org/2000/svg" xmlns:xlink="http://www.w3.org/1999/xlink">
	<desc>
			Created with Pixso.
	</desc>
	<defs/>
	<circle id="Oval" cx="15.000000" cy="15.000000" r="15.000000" fill="#CABC8A" fill-opacity="1.000000"/>
	<path id="Shape" d="M8.81 13.68L17.87 13.68L13.91 9.72C13.58 9.4 13.59 8.87 13.92 8.55C14.24 8.24 14.75 8.25 15.06 8.56L20.93 14.43C20.97 14.47 20.97 14.52 20.93 14.56L15.07 20.43C14.75 20.74 14.24 20.74 13.93 20.43C13.61 20.11 13.61 19.6 13.92 19.29L17.87 15.31L8.81 15.31C8.36 15.31 8 14.94 8 14.5C8 14.05 8.36 13.68 8.81 13.68Z" fill="#FFFFFF" fill-opacity="1.000000" fill-rule="nonzero"/>
</svg>
